<?xml version="1.0" ?><svg id="Layer_1" style="enable-background:new 0 0 64 64;" version="1.1" viewBox="0 0 64 64" xml:space="preserve" xmlns="http://www.w3.org/2000/svg" xmlns:xlink="http://www.w3.org/1999/xlink"><style type="text/css">
	.st0{fill:#FFFFFF;}
	.st1{fill-rule:evenodd;clip-rule:evenodd;fill:#FFFFFF;}
	.st2{fill:#D2E5F0;}
	.st3{fill:#B6CFE3;}
</style><g id="XMLID_7281_"><defs><path d="M57.5,57.5c-6,6-45,6-51,0c-6-6-6-45,0-51c6-6,45-6,51,0C63.5,12.5,63.5,51.5,57.5,57.5z" id="XMLID_7282_"/></defs><use style="overflow:visible;fill:#0378B8;" xlink:href="#XMLID_7282_"/><clipPath id="XMLID_2_"><use style="overflow:visible;" xlink:href="#XMLID_7282_"/></clipPath></g><g id="XMLID_7277_"><path class="st0" d="M40.2,26.1c-3.6,0-5.3,1.3-6.5,3.1v-1.7c0-0.6-0.5-1-1-1h-4.9c-0.6,0-1,0.5-1,1v19.8   c0,0.6,0.5,1,1,1h4.9c0.6,0,1-0.5,1-1V36.7c0.1-1.4,0.8-4.6,3.9-4.6c4,0,3.6,4.7,3.6,6v9.2c0,0.6,0.5,1,1,1h5c0.6,0,1-0.5,1-1v-9.5   C48.2,33.6,48.2,26.1,40.2,26.1z" id="XMLID_7280_"/><circle class="st0" cx="20.3" cy="20.1" id="XMLID_7279_" r="4.5"/><path class="st0" d="M22.6,26.5h-4.7c-0.6,0-1.1,0.5-1.1,1.1v19.7c0,0.6,0.5,1.1,1.1,1.1h4.7   c0.6,0,1.1-0.5,1.1-1.1V27.6C23.7,26.9,23.2,26.5,22.6,26.5z" id="XMLID_7278_"/></g></svg>