<?xml version="1.0" ?><svg id="Layer_1" style="enable-background:new 0 0 64 64;" version="1.1" viewBox="0 0 64 64" xml:space="preserve" xmlns="http://www.w3.org/2000/svg" xmlns:xlink="http://www.w3.org/1999/xlink"><style type="text/css">
	.st0{fill:#FFFFFF;}
	.st1{fill-rule:evenodd;clip-rule:evenodd;fill:#FFFFFF;}
	.st2{fill:#D2E5F0;}
	.st3{fill:#B6CFE3;}
</style><g id="XMLID_9758_"><defs><path d="M57.5,57.5c-6,6-45,6-51,0c-6-6-6-45,0-51c6-6,45-6,51,0C63.5,12.5,63.5,51.5,57.5,57.5z" id="XMLID_9759_"/></defs><use style="overflow:visible;fill:#EE2724;" xlink:href="#XMLID_9759_"/><clipPath id="XMLID_2_"><use style="overflow:visible;" xlink:href="#XMLID_9759_"/></clipPath></g><path class="st0" d="M41.5,20.5H22.5c-3.7,0-6.7,3-6.7,6.7v9.5c0,3.7,3,6.7,6.7,6.7h18.9c3.7,0,6.7-3,6.7-6.7v-9.5  C48.2,23.5,45.2,20.5,41.5,20.5z M36.9,32.5l-8.9,4.2c-0.2,0.1-0.5-0.1-0.5-0.3v-8.7c0-0.3,0.3-0.4,0.5-0.3l8.9,4.5  C37.2,32,37.2,32.3,36.9,32.5z" id="XMLID_9755_"/></svg>